<svg xmlns="http://www.w3.org/2000/svg" width="100%" height="100%" viewBox="0 0 29.209 39.518">
  <g id="Layer_4" transform="translate(-6.261)" style="mix-blend-mode: lighten;isolation: isolate">
    <g id="Group_3" data-name="Group 3" transform="translate(6.261)">
      <path id="Path_25" data-name="Path 25" d="M22.76,30.863a6.141,6.141,0,0,1-2.893-.769l-.523,2.041a7.026,7.026,0,0,0,2.962.749v1.656h1.709V32.763a3.338,3.338,0,0,0,3.1-3.226c0-1.568-.836-2.526-2.91-3.258-1.481-.56-2.09-.924-2.09-1.5,0-.488.365-.976,1.5-.976a5.773,5.773,0,0,1,2.51.593l.506-1.969a6.281,6.281,0,0,0-2.527-.575V20.318H22.4v1.656c-1.866.366-2.946,1.569-2.946,3.1,0,1.691,1.272,2.562,3.138,3.191,1.289.436,1.847.854,1.847,1.516C24.434,30.479,23.754,30.863,22.76,30.863Z" transform="translate(-8.573 -3.59)" fill="#f5f4f3"/>
      <path id="Path_26" data-name="Path 26" d="M35.47,24.967a14.514,14.514,0,0,0-.852-4.871l.014-.006s-.088-.277-.293-.757l-.044-.1c-.134-.309-.314-.689-.547-1.138l-.067-.122a30.112,30.112,0,0,0-9.87-10.546L28.883,0H12.846L17.92,7.43A30.112,30.112,0,0,0,8.05,17.976l-.067.122c-.233.449-.413.83-.547,1.139l-.044.1c-.2.481-.293.757-.293.757l.014.007a14.5,14.5,0,0,0,12.6,19.365c.222.019.448.026.672.034.142,0,.282.022.425.022l.054,0,.054,0c.143,0,.282-.017.424-.021.225-.008.451-.015.673-.034A14.542,14.542,0,0,0,35.47,24.967ZM9.417,24.63c.171-3.308,2.215-6.642,4.545-9.413,1.193-1.325,2.476-2.635,3.6-3.739C19.1,10.056,20.38,9.066,20.866,8.7c.486.365,1.765,1.356,3.307,2.778,1.122,1.1,2.4,2.415,3.6,3.739,2.329,2.77,4.373,6.106,4.545,9.413.034,1.749-.24,8.92-9.537,11.561a16.531,16.531,0,0,1-1.912.192,16.53,16.53,0,0,1-1.912-.192C9.657,33.55,9.383,26.38,9.417,24.63Z" transform="translate(-6.261)" fill="#f5f4f3"/>
    </g>
  </g>
</svg>
