<svg xmlns="http://www.w3.org/2000/svg" width="100%" height="100%" viewBox="0 0 35.006 33.151">
  <g transform="translate(4.797 3.505)">
    <path d="M7.838,22.408A3.123,3.123,0,0,0,5,25.76a3.123,3.123,0,0,0,2.838,3.352,3.123,3.123,0,0,0,2.838-3.352A3.123,3.123,0,0,0,7.838,22.408ZM7.838,9A3.123,3.123,0,0,0,5,12.352,3.123,3.123,0,0,0,7.838,15.7a3.123,3.123,0,0,0,2.838-3.352A3.123,3.123,0,0,0,7.838,9Zm0,27.184a2.783,2.783,0,0,0-2.526,2.983,2.783,2.783,0,0,0,2.526,2.983,2.783,2.783,0,0,0,2.526-2.983A2.783,2.783,0,0,0,7.838,36.184ZM13.515,41.4H40.006V36.933H13.515Zm0-13.408H40.006V23.525H13.515Zm0-17.877v4.469H40.006V10.117Z" transform="translate(-9.797 -12.505)" fill="#f5f4f3"/>
    <path d="M0,0H27.008V31.388H0Z" transform="translate(-2.384 -1.742)" fill="none"/>
  </g>
</svg>
