<svg xmlns="http://www.w3.org/2000/svg" width="100%" height="100%" viewBox="0 0 34.209 34.209">
  <path id="iconfinder_home_126572" d="M33.033,14.966l-3.1-3.1V4.276a2.144,2.144,0,0,0-2.138-2.138H25.656a2.144,2.144,0,0,0-2.138,2.138V5.458L19.242,1.187A3,3,0,0,0,17.1,0a3,3,0,0,0-2.138,1.187L1.176,14.966A2.96,2.96,0,0,0,0,17.1a2.1,2.1,0,0,0,2.138,2.138H4.276V32.071a2.144,2.144,0,0,0,2.138,2.138h6.414V23.518a2.144,2.144,0,0,1,2.138-2.138h4.276a2.144,2.144,0,0,1,2.138,2.138v10.69h6.414a2.144,2.144,0,0,0,2.138-2.138V19.242h2.138A2.1,2.1,0,0,0,34.209,17.1,2.96,2.96,0,0,0,33.033,14.966Z" fill="#f5f4f3"/>
</svg>
