<svg xmlns="http://www.w3.org/2000/svg" width="100%" height="100%" viewBox="0 0 39.96 46.333">
  <g id="iconfinder_money_bag_finance_icon2_3209918" transform="translate(-12.02 -3.95)">
    <path id="Path_88" data-name="Path 88" d="M49.286,31.994c-1.142-1.335-2.079-2.79-3.193-4.141-.737-.9-.766-1.442.642-1.827a4.684,4.684,0,0,0,3.495-2.9,11.232,11.232,0,0,0,.733-4.544c-.238-2.829-1.1-5.363-4.733-6.463-.9-.271-.761-.639-.384-1.188a35.426,35.426,0,0,0,2.311-3.643c1.094-2.123.371-2.882-2.372-2.554a13.769,13.769,0,0,1-6.866-.494c-2.222-.851-5.756.317-7.173,1.949-.271.308-.659.737-.423,1,1.5,1.7.041,2.32-1.43,3.048-.509.254-.793.813-1.227,1.2a6.739,6.739,0,0,1-3.418,1.908c-.874.14-1.876.234-2.062-.836-.611-3.455-3.364-3.627-6.435-3.516-.684.026-1.421.359-2.042,0-.526-.305-1.064-.857-1.593-.3-.515.54-1.34,1.191-1.026,1.947.933,2.276.4,4.609.6,6.389,0,2.475-.122,4.441.029,6.39.166,2.053,1.582,2.917,4.009,2.6,1.626-.213,3.232-.534,4.843-.813.656-.11,1.233-.308,1.35-.945.21-1.091.867-.62,1.434-.268,1.777,1.106,3.476,2.313,5.741,2.707.839.146.456.578.243.963a29.771,29.771,0,0,1-2.41,3.778c-3.822,4.989-3.2,11.393,1.486,15.8a4.839,4.839,0,0,0,.981.747c4.105,2.272,8.377,3.146,13.132,1.345,5.051-1.913,7.588-5.383,8.343-9.7C52.346,36.914,51.249,34.3,49.286,31.994ZM21.339,22.9c-.115.521-.492.648-1,.806-5,1.539-5.787,1.091-5.709-3.283.015-1.06,0-2.117,0-3.175h-.059c0-1.641.085-3.285-.028-4.919-.078-1.091.394-1.573,1.662-1.586.95-.01,1.9-.083,2.842-.023a1.991,1.991,0,0,1,1.911,1.332A19.473,19.473,0,0,1,21.339,22.9ZM34.957,6.186a5.222,5.222,0,0,1,2.948-.423c1.355.231,2.538,1.008,3.989.956,1.38-.048,2.759-.152,4.357-.245A14.286,14.286,0,0,1,43,11.407c-.911.95-2.652.441-3.972.769-1.8.444-2.464-.474-3.084-1.631a10.591,10.591,0,0,0-1.67-2.115C33.308,7.4,33.665,6.729,34.957,6.186Zm-6.3,18.233c-1.689-.612-2.748-2.063-4.669-2.384-.608-.1-.336-.626-.286-.95a18.43,18.43,0,0,0,.186-4.909c-.075-.684.08-1.094,1.076-1.1,2.078-.016,3.487-1.138,4.894-2.215a9.789,9.789,0,0,0,.864-.845c1.988-1.977,2.824-1.986,3.94.27.766,1.548,1.848,1.917,3.67,1.652,1.681-.248,3.4-.365,5.109-.448,2.556-.121,4.27.86,5.023,2.882a8.322,8.322,0,0,1-.274,6.4c-.706,1.62-2.59,1.91-4.3,2.263a34.31,34.31,0,0,1-6.076.243C34.737,25.182,31.612,25.487,28.66,24.419ZM34,47.728a9.653,9.653,0,0,1-4.966-4.512C26.6,38.989,27,35.15,30.328,31.447a8.343,8.343,0,0,0,.484-.684c.876-1.216,1.006-3.068,2.539-3.6,1.45-.512,3.36-.112,5.117-.112,3.263-.727,5.426.208,6.949,2.852,1.685,2.926,4.62,5.389,4.489,8.938C49.685,44.981,41.574,50.885,34,47.728Z" transform="translate(0)" fill="#f5f4f3" fill-rule="evenodd"/>
    <path id="Path_89" data-name="Path 89" d="M35.165,37.492c-.746-.188-1.5-.344-2.241-.554a1.748,1.748,0,0,1-1.316-1.817,1.785,1.785,0,0,1,1.332-1.806c1.508-.515,2.126-.211,2.764,1.49.192.517.337,1.065,1.065.993.664-.071.7-.568.682-1.1a3.414,3.414,0,0,0-2.291-3.169c-.7-.235-1-.474-.955-1.186.037-.571.021-1.3-.821-1.3-.959-.01-.876.791-.9,1.405-.026.647-.017,1.232-.79,1.572a3.146,3.146,0,0,0-1.837,3.575,3.376,3.376,0,0,0,2.892,3.079c.755.149,1.5.333,2.247.531s1.42.68,1.291,1.427a1.657,1.657,0,0,1-1.726,1.232,4.086,4.086,0,0,1-2.781-.817c-.471-.419-.966-.94-1.5-.305a1.09,1.09,0,0,0,.478,1.748A3.284,3.284,0,0,1,32.984,45.3a.93.93,0,0,0,1.153.874c.711-.179.683-.788.494-1.3-.3-.794-.215-1.149.787-1.407,1.783-.461,2.808-1.747,2.713-2.987C38.014,38.991,36.99,37.952,35.165,37.492Z" transform="translate(5.813)" fill="#f5f4f3" fill-rule="evenodd"/>
    <path id="Path_90" data-name="Path 90" d="M16.15,13.472c-.772-.073-.864.515-.845,1.049.03.622.1,1.354.922,1.442.711.076.84-.505.873-1.156C16.933,14.326,17.044,13.557,16.15,13.472Z" transform="translate(0.358)" fill="#f5f4f3" fill-rule="evenodd"/>
  </g>
</svg>
