<svg id="_x32_58_x2C__Income_x2C__profit_x2C__revenue_x2C__Money" xmlns="http://www.w3.org/2000/svg" width="37.451" height="37.082" viewBox="0 0 37.451 37.082">
  <g id="Group_11" data-name="Group 11">
    <path id="Path_32" data-name="Path 32" d="M236.038,42.533q.336,0,.68-.018c3.132-.164,6.709-1.594,7.638-4.418a5.925,5.925,0,0,0-.622-4.6,21.241,21.241,0,0,0-5.555-6.288l0,0a.337.337,0,0,1-.027-.027c-.006-.006-.012-.012-.018-.018a.326.326,0,0,1-.018-.027c-.005-.008-.011-.016-.016-.025s-.007-.018-.011-.026-.009-.02-.012-.03a.3.3,0,0,1-.006-.03c0-.01,0-.02-.005-.03a.315.315,0,0,1,0-.033c0-.01,0-.019,0-.029s0-.019.006-.029a.317.317,0,0,1,.007-.032c0-.008.007-.016.01-.024a.319.319,0,0,1,.015-.035v0l2.267-4.078c-.355-.006-.689-.009-1.016-.013a17.888,17.888,0,0,1-6.233-.847l-.892.921,2.591,3.5,0,.006a.32.32,0,0,1,.018.03c0,.009.01.017.014.026s.007.02.01.03.007.019.009.029,0,.02,0,.029a.277.277,0,0,1,0,.031.286.286,0,0,1,0,.03c0,.01,0,.02,0,.031s0,.02-.007.03,0,.02-.008.029-.008.018-.013.027a.293.293,0,0,1-.015.029c0,.008-.011.015-.017.023a.326.326,0,0,1-.022.028l0,.005a24.583,24.583,0,0,0-5.441,7.506,6.191,6.191,0,0,0-.244,4.923C230.049,41.238,232.73,42.533,236.038,42.533Zm-1.14-6.26a.319.319,0,0,1,.429-.139,2.046,2.046,0,0,0,2.1-.013.7.7,0,0,0,.356-.641c-.045-.323-.42-.633-1.029-.849-1.57-.558-1.894-1.449-1.7-2.042a1.467,1.467,0,0,1,1.263-.881v-.965a.319.319,0,1,1,.638,0v.941a4.421,4.421,0,0,1,1.049.2.319.319,0,1,1-.192.608c-1.282-.4-2.031-.07-2.153.3-.112.333.249.863,1.3,1.239,1.15.408,1.4,1.028,1.447,1.361a1.33,1.33,0,0,1-.617,1.249,2.248,2.248,0,0,1-.838.351v1.015a.319.319,0,0,1-.638,0v-.961a3.045,3.045,0,0,1-1.284-.344A.319.319,0,0,1,234.9,36.273Z" transform="translate(-212.257 -21.871)" fill="#f5f4f3"/>
    <path id="Path_33" data-name="Path 33" d="M52.233,271.017c-.163-.174-.7-.253-1.673.1a12.244,12.244,0,0,0-3.4,2.072c-1.411,1.14-3.024,2.274-4.3,2.063l-.086-.014a2.428,2.428,0,0,1,.78,2.082c-.181,1.146-1.274,1.838-2.924,1.851h0a.312.312,0,0,1-.05,0l-7.48-1.226a.318.318,0,0,1-.26-.365.314.314,0,0,1,.36-.264l7.453,1.221c1.3-.017,2.156-.507,2.283-1.314a2.287,2.287,0,0,0-1.782-2.243l-.015-.007-8.348-1.373a.313.313,0,0,1-.2-.122,5.034,5.034,0,0,0-3.491-2.208c-3.046-.328-6.305,2.514-7.871,3.88q-.229.2-.416.36l-.981-1.254a.311.311,0,0,0-.47-.024l-4.409,3.639a.322.322,0,0,0,.005.451.31.31,0,0,0,.444-.005l4.16-3.381,7.9,10.1-3.4,3.133a.322.322,0,0,0,.02.45.31.31,0,0,0,.443-.02l3.58-3.333a.323.323,0,0,0,.014-.414l-6.087-7.779,4.88,6.237,1.344-1.088a.311.311,0,0,1,.231-.067c11.095,1.289,11.666.781,17.126-4.076,1.405-1.25,3.153-2.805,5.475-4.682C52.375,271.927,52.414,271.21,52.233,271.017Z" transform="translate(-14.86 -251.615)" fill="#f5f4f3"/>
    <path id="Path_34" data-name="Path 34" d="M116.676,438.026a1.115,1.115,0,1,0-1.107.988h0a1.119,1.119,0,0,0,.693-.242A1.106,1.106,0,0,0,116.676,438.026Z" transform="translate(-106.649 -404.306)" fill="#f5f4f3"/>
  </g>
</svg>
