<svg xmlns="http://www.w3.org/2000/svg" width="100%" height="100%" viewBox="0 0 26.643 34">
  <path id="iconfinder_search_files_document_paper_folder0_4945358" d="M31.88,9.98a.806.806,0,0,0,0-.235.792.792,0,0,0,0-.087,1.066,1.066,0,0,0-.26-.3L24.594,2.5a1.029,1.029,0,0,0-.273-.173h-.087a.719.719,0,0,0-.223,0H6.179a.942.942,0,0,0-.929.843V35.384a.942.942,0,0,0,.929.929H30.963a.942.942,0,0,0,.929-.929V10.042A.252.252,0,0,1,31.88,9.98ZM20.492,25.222a5.837,5.837,0,0,1-3.457-1.14L12.375,28.8a.929.929,0,1,1-1.314-1.314l4.721-4.721a5.837,5.837,0,0,1-1.152-3.47,5.923,5.923,0,1,1,5.923,5.923Zm9.542-14.251H23.95a.929.929,0,0,1-.929-.929V4.094h.508l1.314,1.239,3.8,3.718L30,10.364Zm-9.542,4.275a4.065,4.065,0,1,0,4.065,4.027,4.065,4.065,0,0,0-4.065-4.027Z" transform="translate(-5.25 -2.313)" fill="#f5f4f3"/>
</svg>
