<svg xmlns="http://www.w3.org/2000/svg" width="100%" height="100%" viewBox="0 0 122.119 135.688">
  <path id="iconfinder_calendar_3671721" d="M1,27.137A13.609,13.609,0,0,1,14.569,13.569H109.55a13.569,13.569,0,0,1,13.569,13.569v94.981a13.569,13.569,0,0,1-13.569,13.569H14.569A13.569,13.569,0,0,1,1,122.119ZM14.569,40.706v81.412H109.55V40.706ZM28.137,0H41.706V13.569H28.137ZM82.412,0H95.981V13.569H82.412ZM28.137,61.059H41.706V74.628H28.137Zm0,27.137H41.706v13.569H28.137ZM55.275,61.059H68.844V74.628H55.275Zm0,27.137H68.844v13.569H55.275ZM82.412,61.059H95.981V74.628H82.412Zm0,27.137H95.981v13.569H82.412Z" transform="translate(-1)" fill="#494949"/>
</svg>
