<svg xmlns="http://www.w3.org/2000/svg" width="100%" height="100%" viewBox="0 0 146 145">
  <g id="iconfinder_money_box_172507" transform="translate(0 0.128)">
    <rect id="Rectangle_4" data-name="Rectangle 4" width="146" height="145" transform="translate(0 -0.128)" fill="none"/>
    <g id="Group_1" data-name="Group 1" transform="translate(35.009 10.392)">
      <path id="Path_4" data-name="Path 4" d="M49.927,22.525a18.963,18.963,0,1,0-37.927,0,18.565,18.565,0,0,0,1.873,8.169" transform="translate(-12 -3.562)" fill="none" stroke="#494949" stroke-linejoin="round" stroke-miterlimit="10" stroke-width="8"/>
    </g>
    <path id="Path_5" data-name="Path 5" d="M119.651,54.84H114.9c-2.474,0-3.647-1.1-3.828-2.223A29.246,29.246,0,0,0,91.211,29.269c-.128-7.361,1.514-12.67,4.712-21.309-7.431,1.864-15.64,5.911-20.5,16.629a73.431,73.431,0,0,0-17.44-2.063c-16,0-28.072,4.855-37.734,12.376C11.522,41.7,6.04,53.075,6.69,68.6,7.18,80.3,15.335,89.237,21.59,94.24c.9.712,2.7,1.853,1.759,4.761s-2.634,6.955-2.634,6.955a5.022,5.022,0,0,0,2.906,6.471l9.388,3.548a5.017,5.017,0,0,0,6.471-2.906s1.249-3.253,2.264-5.966c1.928-5.1,3.107-.963,16.238-.963,13.645,0,15.022-2.661,16.449,1.517.913,2.728,2.051,5.412,2.051,5.412a5.014,5.014,0,0,0,6.474,2.906l9.377-3.548a5.016,5.016,0,0,0,2.915-6.471l-1.505-3.982s-1.532-2.626,1.75-4.408A34.4,34.4,0,0,0,110.16,81.937c.68-1.43,1.683-3.373,4.744-3.373h4.747a4.746,4.746,0,0,0,4.741-4.738V59.593A4.754,4.754,0,0,0,119.651,54.84Z" transform="translate(12.728 13.763)" fill="none" stroke="#494949" stroke-linecap="round" stroke-linejoin="round" stroke-miterlimit="10" stroke-width="8"/>
    <path id="Path_6" data-name="Path 6" d="M40.154,34.258a5.581,5.581,0,1,1,5.572-5.584A5.586,5.586,0,0,1,40.154,34.258Z" transform="translate(66.274 43.534)" fill="#494949"/>
    <path id="Path_7" data-name="Path 7" d="M14.162,37.636S3,35.08,3,25.012c0-4.128,2.083-7.927,5.727-9.5" transform="translate(5.752 29.196)" fill="none" stroke="#494949" stroke-linecap="round" stroke-linejoin="round" stroke-miterlimit="10" stroke-width="8"/>
  </g>
</svg>
